<svg width="165" height="90" viewBox="0 0 165 90" fill="none" xmlns="http://www.w3.org/2000/svg">
<path fill-rule="evenodd" clip-rule="evenodd" d="M23.453 30.1852H31.7312V40.5286H40.5606V30.1852H48.8387V58.417H40.5606V47.2349H31.7312V58.4166H23.453V30.1852ZM78.3617 30.1852V58.417H70.3607V36.8951H65.1171V45C65.1171 48.6335 64.84 53.1049 62.6337 55.6218C60.4259 58.4166 56.2878 59.2553 51.5969 58.4166V51.4283C56.0106 52.2666 57.1161 50.5901 57.1161 45V30.1852C57.1165 30.1852 78.3617 30.1852 78.3617 30.1852ZM85.2604 30.1852H93.537L98.2278 46.9569L102.919 30.1852H111.195L115.06 58.417H107.331L105.4 43.3238L100.987 58.417H95.4692L91.054 43.3238L89.1217 58.417H81.3963L85.2604 30.1852ZM118.094 30.1852H126.371V41.6453L134.375 30.1852H143.478L132.994 44.1617L143.753 58.4166H133.82L126.371 46.9565V58.4166H118.094V30.1852ZM82.5002 0C32.8351 0 0 18.1668 0 45C0 71.5533 32.8351 90 82.5002 90C132.441 90 165 71.5533 165 45C165 18.1668 132.441 0 82.5002 0ZM82.5002 85.8086C35.8693 85.8086 4.69124 69.3168 4.69124 45C4.69124 20.4033 35.8697 4.19145 82.5002 4.19145C129.406 4.19145 160.309 20.4033 160.309 45C160.309 69.3168 129.406 85.8086 82.5002 85.8086ZM82.5002 8.10333C38.6299 8.10333 9.38208 22.9181 9.38208 45C9.38208 67.0818 38.6299 81.8951 82.5002 81.8951C126.371 81.8951 155.618 67.0818 155.618 45C155.618 22.9181 126.37 8.10333 82.5002 8.10333ZM82.5002 81.0568C39.1811 81.0568 10.2088 66.5219 10.2088 45C10.2088 23.4781 39.1811 8.94321 82.5002 8.94321C125.819 8.94321 154.792 23.4781 154.792 45C154.792 66.5219 125.819 81.0568 82.5002 81.0568Z" fill="white"/>
</svg>
