<svg width="54" height="31" viewBox="0 0 54 31" fill="none" xmlns="http://www.w3.org/2000/svg">
<path d="M53.6973 27.8158C53.6319 27.6749 53.571 27.5581 53.5144 27.4644C52.5777 25.7776 50.7879 23.7071 48.1459 21.2523L48.0901 21.1961L48.0621 21.1685L48.0339 21.1403H48.0055C46.8065 19.9972 46.0472 19.2287 45.7292 18.8352C45.1474 18.0856 45.017 17.3269 45.335 16.5581C45.5597 15.9773 46.4035 14.7507 47.8647 12.8766C48.6332 11.8833 49.2419 11.0873 49.6914 10.4876C52.9333 6.17762 54.3388 3.42351 53.9076 2.22415L53.7402 1.94387C53.6277 1.77514 53.3373 1.62077 52.8693 1.47999C52.4003 1.33951 51.8009 1.31628 51.07 1.4099L42.9754 1.46582C42.8442 1.41935 42.657 1.42368 42.413 1.47999C42.1694 1.53631 42.0475 1.56456 42.0475 1.56456L41.9066 1.63495L41.7948 1.71951C41.7011 1.77543 41.598 1.87378 41.4855 2.01436C41.3736 2.15445 41.2799 2.31885 41.2051 2.50619C40.3238 4.77349 39.3218 6.88151 38.1973 8.83014C37.5039 9.9921 36.8672 10.9991 36.2857 11.8517C35.705 12.7041 35.2177 13.3321 34.8246 13.7346C34.4308 14.1375 34.0754 14.4603 33.7562 14.7042C33.4375 14.9481 33.1943 15.0512 33.0259 15.0135C32.857 14.9758 32.698 14.9384 32.5475 14.901C32.2853 14.7323 32.0745 14.5028 31.9155 14.2124C31.7558 13.9219 31.6483 13.5564 31.5921 13.1161C31.5362 12.6754 31.5031 12.2964 31.4936 11.9777C31.4849 11.6595 31.4889 11.2093 31.5079 10.6285C31.5274 10.0473 31.5362 9.65413 31.5362 9.44799C31.5362 8.73583 31.5501 7.96294 31.5779 7.1291C31.6063 6.29527 31.6292 5.6346 31.6484 5.14788C31.6675 4.66067 31.6764 4.14521 31.6764 3.60179C31.6764 3.05837 31.6433 2.6322 31.5779 2.32289C31.5133 2.01396 31.4142 1.7141 31.2836 1.42339C31.1521 1.13297 30.9598 0.908321 30.7074 0.748839C30.4545 0.589554 30.14 0.46315 29.7658 0.369233C28.7726 0.144481 27.5079 0.0229008 25.971 0.00399924C22.486 -0.0334101 20.2466 0.191636 19.2535 0.678844C18.86 0.884694 18.5039 1.16595 18.1856 1.52174C17.8482 1.93412 17.8011 2.15917 18.0447 2.19619C19.1691 2.36463 19.9652 2.76757 20.4337 3.40461L20.6025 3.74218C20.7338 3.98573 20.865 4.41692 20.9962 5.03516C21.1272 5.6534 21.2118 6.3373 21.249 7.08647C21.3425 8.45457 21.3425 9.62568 21.249 10.5999C21.1552 11.5745 21.0666 12.3332 20.982 12.8767C20.8974 13.4201 20.771 13.8604 20.6025 14.1976C20.4337 14.5349 20.3213 14.741 20.265 14.8158C20.2088 14.8907 20.162 14.9378 20.1247 14.9563C19.8812 15.0496 19.6279 15.0972 19.3657 15.0972C19.1032 15.0972 18.7848 14.9659 18.4101 14.7034C18.0355 14.441 17.6468 14.0804 17.2438 13.6213C16.8409 13.162 16.3865 12.5203 15.8804 11.6959C15.3746 10.8715 14.8499 9.8972 14.3065 8.77295L13.8569 7.95762C13.5758 7.4331 13.1919 6.66936 12.7047 5.66708C12.2172 4.66442 11.7863 3.69453 11.4117 2.75762C11.262 2.36413 11.037 2.06457 10.7373 1.85842L10.5966 1.77385C10.5031 1.69904 10.3529 1.61959 10.147 1.53493C9.94074 1.45036 9.72554 1.38972 9.50049 1.35241L1.79919 1.40833C1.01222 1.40833 0.478249 1.58661 0.197088 1.94269L0.0845648 2.11113C0.0283523 2.20495 0 2.35478 0 2.56103C0 2.76717 0.0562125 3.02018 0.168736 3.31975C1.29298 5.96203 2.51558 8.51029 3.83652 10.9649C5.15747 13.4196 6.30534 15.3969 7.27946 16.895C8.25378 18.3942 9.2469 19.8092 10.2588 21.1392C11.2707 22.4697 11.9406 23.3223 12.2683 23.6969C12.5964 24.0722 12.8541 24.3528 13.0415 24.5401L13.7443 25.2146C14.194 25.6644 14.8544 26.203 15.7257 26.8306C16.5972 27.4586 17.5621 28.0769 18.6208 28.6863C19.6797 29.2948 20.9115 29.7914 22.317 30.1754C23.7223 30.5599 25.0901 30.7141 26.4206 30.6397H29.653C30.3086 30.5831 30.8052 30.3769 31.1428 30.0212L31.2546 29.8803C31.3298 29.7685 31.4002 29.5947 31.4652 29.3609C31.531 29.1267 31.5636 28.8687 31.5636 28.588C31.5444 27.7824 31.6058 27.0564 31.746 26.41C31.886 25.7638 32.0457 25.2766 32.2243 24.9485C32.4028 24.6206 32.6042 24.344 32.8284 24.1197C33.053 23.895 33.2131 23.7588 33.307 23.712C33.4003 23.6648 33.4749 23.6328 33.5311 23.6136C33.9808 23.4638 34.51 23.6089 35.1196 24.0496C35.7287 24.49 36.3 25.0337 36.8343 25.6799C37.3684 26.3267 38.0101 27.0523 38.7594 27.8579C39.5093 28.6638 40.1649 29.2628 40.7269 29.6569L41.2888 29.9942C41.6641 30.2192 42.1513 30.4254 42.751 30.6127C43.3496 30.8 43.8742 30.8468 44.3246 30.7532L51.5196 30.641C52.2313 30.641 52.7851 30.5231 53.1779 30.2893C53.5715 30.0551 53.8053 29.7971 53.8807 29.5164C53.9559 29.2355 53.9599 28.9167 53.8949 28.5603C53.8283 28.2048 53.7626 27.9563 53.6973 27.8158Z" fill="white"/>
</svg>
